<?xml version="1.0" encoding="utf-8"?>
<!-- Generator: Adobe Illustrator 27.5.0, SVG Export Plug-In . SVG Version: 6.00 Build 0)  -->
<svg version="1.1" xmlns="http://www.w3.org/2000/svg" xmlns:xlink="http://www.w3.org/1999/xlink" x="0px" y="0px"
	 viewBox="0 0 177 22.9" style="enable-background:new 0 0 177 22.9;" xml:space="preserve">
<style type="text/css">
	.st0{fill:#F04E47;}
	.st1{fill:#2B2C6C;}
	.st2{fill:#1FB2D3;}
</style>
<g id="Layer_1">
</g>
<g id="Layer_2">
	<path class="st0" d="M2.7,9.7c0.6-1,1.4-1.8,2.4-2.3c1-0.5,2.2-0.8,3.5-0.8c1.7,0,3.1,0.4,4.2,1.2c1.1,0.8,1.8,1.9,2.2,3.3h-3.7
		c-0.2-0.6-0.5-1-1-1.3c-0.5-0.3-1-0.5-1.7-0.5c-1,0-1.8,0.3-2.3,1c-0.6,0.7-0.9,1.6-0.9,2.8c0,1.2,0.3,2.2,0.9,2.8
		c0.6,0.7,1.4,1,2.3,1c1.4,0,2.3-0.6,2.7-1.7H15c-0.4,1.4-1.1,2.5-2.2,3.3c-1.1,0.8-2.5,1.2-4.2,1.2c-1.3,0-2.5-0.3-3.5-0.8
		c-1-0.5-1.8-1.3-2.4-2.3c-0.6-1-0.9-2.1-0.9-3.5C1.8,11.8,2.1,10.7,2.7,9.7z"/>
	<path class="st0" d="M21,2.5v17h-3.4v-17H21z"/>
	<path class="st0" d="M37,14.1H27c0.1,0.9,0.4,1.6,1,2.2c0.6,0.5,1.4,0.8,2.2,0.8c1.3,0,2.2-0.5,2.7-1.5h3.7c-0.4,1.2-1.1,2.2-2.3,3
		c-1.1,0.8-2.5,1.2-4.1,1.2c-1.3,0-2.5-0.3-3.5-0.8s-1.9-1.3-2.4-2.3s-0.9-2.1-0.9-3.5c0-1.3,0.3-2.5,0.9-3.5c0.6-1,1.4-1.8,2.4-2.3
		c1-0.5,2.2-0.8,3.6-0.8c1.3,0,2.5,0.3,3.5,0.8c1,0.5,1.8,1.3,2.4,2.2c0.6,1,0.8,2.1,0.8,3.3C37.1,13.3,37,13.8,37,14.1z M33.5,12
		c0-0.8-0.3-1.5-1-2c-0.6-0.5-1.4-0.7-2.3-0.7c-0.9,0-1.6,0.2-2.2,0.7c-0.6,0.5-0.9,1.2-1.1,2H33.5z"/>
	<path class="st1" d="M40,9.7c0.5-1,1.3-1.8,2.3-2.3c1-0.5,2-0.8,3.2-0.8c0.9,0,1.7,0.2,2.5,0.5c0.8,0.4,1.4,0.8,1.9,1.4v-6h3.5v17
		h-3.5v-1.9c-0.4,0.6-1,1.1-1.8,1.5c-0.8,0.4-1.7,0.6-2.7,0.6c-1.1,0-2.2-0.3-3.2-0.8c-1-0.6-1.7-1.3-2.3-2.3
		c-0.5-1-0.8-2.2-0.8-3.5C39.2,11.8,39.5,10.7,40,9.7z M49.4,11.1c-0.3-0.6-0.8-1-1.3-1.3c-0.6-0.3-1.2-0.4-1.8-0.4
		c-0.6,0-1.2,0.1-1.8,0.4c-0.5,0.3-1,0.7-1.3,1.3c-0.3,0.6-0.5,1.2-0.5,2c0,0.8,0.2,1.4,0.5,2c0.3,0.6,0.8,1,1.3,1.3
		c0.5,0.3,1.1,0.5,1.8,0.5c0.6,0,1.2-0.1,1.8-0.4c0.6-0.3,1-0.7,1.3-1.3s0.5-1.2,0.5-2C49.9,12.4,49.7,11.7,49.4,11.1z"/>
	<path class="st1" d="M56.7,9.7c0.5-1,1.3-1.8,2.2-2.3c0.9-0.5,2-0.8,3.2-0.8c1,0,1.9,0.2,2.7,0.6c0.8,0.4,1.4,0.9,1.8,1.4V6.8h3.5
		v12.7h-3.5v-1.9c-0.4,0.6-1.1,1.1-1.8,1.5s-1.7,0.6-2.7,0.6c-1.1,0-2.2-0.3-3.1-0.8c-0.9-0.6-1.7-1.3-2.2-2.3
		c-0.5-1-0.8-2.2-0.8-3.5C55.9,11.8,56.1,10.7,56.7,9.7z M66.1,11.1c-0.3-0.6-0.8-1-1.3-1.3c-0.6-0.3-1.2-0.4-1.8-0.4
		c-0.6,0-1.2,0.1-1.8,0.4c-0.5,0.3-1,0.7-1.3,1.3c-0.3,0.6-0.5,1.2-0.5,2c0,0.8,0.2,1.4,0.5,2c0.3,0.6,0.8,1,1.3,1.3
		c0.5,0.3,1.1,0.5,1.8,0.5c0.6,0,1.2-0.1,1.8-0.4c0.6-0.3,1-0.7,1.3-1.3s0.5-1.2,0.5-2C66.6,12.4,66.4,11.7,66.1,11.1z"/>
	<path class="st1" d="M77.4,9.4v6.2c0,0.4,0.1,0.7,0.3,0.9c0.2,0.2,0.6,0.3,1.1,0.3h1.6v2.7h-2.2c-2.9,0-4.4-1.3-4.4-4V9.4h-1.6V6.8
		H74V3.6h3.5v3.2h3.1v2.6H77.4z"/>
	<path class="st1" d="M82.4,9.7c0.5-1,1.3-1.8,2.2-2.3c0.9-0.5,2-0.8,3.2-0.8c1,0,1.9,0.2,2.7,0.6c0.8,0.4,1.4,0.9,1.8,1.4V6.8h3.5
		v12.7h-3.5v-1.9c-0.4,0.6-1.1,1.1-1.8,1.5c-0.8,0.4-1.7,0.6-2.7,0.6c-1.1,0-2.2-0.3-3.1-0.8c-0.9-0.6-1.7-1.3-2.2-2.3
		c-0.5-1-0.8-2.2-0.8-3.5C81.6,11.8,81.9,10.7,82.4,9.7z M91.8,11.1c-0.3-0.6-0.8-1-1.3-1.3c-0.6-0.3-1.2-0.4-1.8-0.4
		c-0.6,0-1.2,0.1-1.8,0.4c-0.5,0.3-1,0.7-1.3,1.3c-0.3,0.6-0.5,1.2-0.5,2c0,0.8,0.2,1.4,0.5,2c0.3,0.6,0.8,1,1.3,1.3
		c0.5,0.3,1.1,0.5,1.8,0.5c0.6,0,1.2-0.1,1.8-0.4c0.6-0.3,1-0.7,1.3-1.3s0.5-1.2,0.5-2C92.3,12.4,92.2,11.7,91.8,11.1z"/>
	<path class="st2" d="M103.2,9.4v6.2c0,0.4,0.1,0.7,0.3,0.9c0.2,0.2,0.6,0.3,1.1,0.3h1.6v2.7h-2.2c-2.9,0-4.4-1.3-4.4-4V9.4h-1.6
		V6.8h1.6V3.6h3.5v3.2h3.1v2.6H103.2z"/>
	<path class="st2" d="M143.6,2.5v17h-3.4v-17H143.6z"/>
	<path class="st2" d="M154.5,19.5l-4.6-5.4v5.4h-3.4v-17h3.4v9.7l4.6-5.4h4.5l-6,6.4l6.1,6.3H154.5z"/>
	<path class="st2" d="M161.1,4.7c-0.4-0.4-0.6-0.8-0.6-1.3c0-0.5,0.2-1,0.6-1.3c0.4-0.4,0.9-0.5,1.5-0.5c0.6,0,1.1,0.2,1.5,0.5
		c0.4,0.4,0.6,0.8,0.6,1.3c0,0.5-0.2,1-0.6,1.3c-0.4,0.4-0.9,0.5-1.5,0.5C162,5.3,161.5,5.1,161.1,4.7z M164.3,6.8v12.7h-3.4V6.8
		H164.3z"/>
	<path class="st2" d="M171.7,9.4v6.2c0,0.4,0.1,0.7,0.3,0.9c0.2,0.2,0.6,0.3,1.1,0.3h1.6v2.7h-2.2c-2.9,0-4.4-1.3-4.4-4V9.4h-1.6
		V6.8h1.6V3.6h3.5v3.2h3.1v2.6H171.7z"/>
	<path class="st2" d="M121.7,10.4l-0.8-1.7c-0.1-0.1-0.2-0.2-0.4-0.2l-1.8,0.4c-0.1,0-0.2,0-0.3-0.1L118,8.4
		c-0.1-0.1-0.1-0.2-0.1-0.3l0.3-1.8c0-0.1-0.1-0.3-0.2-0.3l-1.8-0.7c-0.1-0.1-0.3,0-0.4,0.1L115,7c-0.1,0.1-0.1,0.1-0.3,0.1l-0.7,0
		c-0.1,0-0.2,0-0.3-0.1l-1-1.5c-0.1-0.1-0.2-0.2-0.4-0.1l-1.7,0.8c-0.1,0.1-0.2,0.2-0.2,0.4l0.4,1.8c0,0.1,0,0.2-0.1,0.3l-0.4,0.5
		c-0.1,0.1-0.2,0.1-0.3,0.1l-1.8-0.3c-0.1,0-0.3,0.1-0.3,0.2l-0.7,1.8c-0.1,0.1,0,0.3,0.1,0.4l1.6,0.9c0.1,0.1,0.1,0.1,0.1,0.3
		l0,0.7c0,0.1,0,0.2-0.1,0.3l-1.5,1c-0.1,0.1-0.2,0.2-0.1,0.4l0.8,1.7c0.1,0.1,0.2,0.2,0.4,0.2l1.8-0.4c0.1,0,0.2,0,0.3,0.1l0.5,0.4
		c0.1,0.1,0.1,0.2,0.1,0.3l-0.3,1.8c0,0.1,0.1,0.3,0.2,0.3l1.8,0.7c0.1,0.1,0.3,0,0.4-0.1l0.9-1.6c0.1-0.1,0.1-0.1,0.3-0.1l0.7,0
		c0.1,0,0.2,0,0.3,0.1l1,1.5c0.1,0.1,0.2,0.2,0.4,0.1l1.7-0.8c0.1-0.1,0.2-0.2,0.2-0.4l-0.4-1.8c0-0.1,0-0.2,0.1-0.3l0.4-0.5
		c0.1-0.1,0.2-0.1,0.3-0.1l1.8,0.3c0.1,0,0.3-0.1,0.3-0.2l0.7-1.8c0.1-0.1,0-0.3-0.1-0.4l-1.6-0.9c-0.1-0.1-0.1-0.1-0.1-0.3l0-0.7
		c0-0.1,0-0.2,0.1-0.3l1.5-1C121.7,10.7,121.7,10.5,121.7,10.4z M118.2,13.9c-0.7,1.9-2.9,2.9-4.9,2.2c-2-0.7-2.9-2.9-2.2-4.9
		c0.7-2,2.9-2.9,4.9-2.2C117.9,9.7,118.9,11.9,118.2,13.9z"/>
	<path class="st2" d="M138.2,13.5l0-1.9c0-0.1-0.1-0.3-0.2-0.3l-1.8-0.3c-0.1,0-0.2-0.1-0.2-0.2l-0.2-0.6c0-0.1,0-0.2,0-0.3l1.1-1.5
		c0.1-0.1,0.1-0.3,0-0.4l-1.3-1.3c-0.1-0.1-0.3-0.1-0.4,0l-1.5,1c-0.1,0.1-0.2,0.1-0.3,0l-0.6-0.3c-0.1,0-0.2-0.1-0.2-0.2l-0.3-1.8
		c0-0.1-0.1-0.3-0.3-0.3l-1.9,0c-0.1,0-0.3,0.1-0.3,0.2l-0.3,1.8c0,0.1-0.1,0.2-0.2,0.2l-0.6,0.2c-0.1,0-0.2,0-0.3,0l-1.5-1.1
		c-0.1-0.1-0.3-0.1-0.4,0l-1.3,1.3c-0.1,0.1-0.1,0.3,0,0.4l1,1.5c0.1,0.1,0.1,0.2,0,0.3l-0.3,0.6c0,0.1-0.1,0.2-0.2,0.2l-1.8,0.3
		c-0.1,0-0.3,0.1-0.3,0.3l0,1.9c0,0.1,0.1,0.3,0.2,0.3l1.8,0.3c0.1,0,0.2,0.1,0.2,0.2l0.2,0.6c0,0.1,0,0.2,0,0.3l-1.1,1.5
		c-0.1,0.1-0.1,0.3,0,0.4l1.3,1.3c0.1,0.1,0.3,0.1,0.4,0l1.5-1c0.1-0.1,0.2-0.1,0.3,0l0.6,0.3c0.1,0,0.2,0.1,0.2,0.2l0.3,1.8
		c0,0.1,0.1,0.3,0.3,0.3l1.9,0c0.1,0,0.3-0.1,0.3-0.2l0.3-1.8c0-0.1,0.1-0.2,0.2-0.2l0.6-0.2c0.1,0,0.2,0,0.3,0l1.5,1.1
		c0.1,0.1,0.3,0.1,0.4,0l1.3-1.3c0.1-0.1,0.1-0.3,0-0.4l-1-1.5c-0.1-0.1-0.1-0.2,0-0.3l0.3-0.6c0-0.1,0.1-0.2,0.2-0.2l1.8-0.3
		C138.1,13.8,138.2,13.6,138.2,13.5z M133.5,15.2c-1.5,1.5-3.9,1.4-5.3-0.1c-1.5-1.5-1.4-3.9,0.1-5.3c1.5-1.5,3.9-1.4,5.3,0
		C135,11.3,135,13.7,133.5,15.2z"/>
</g>
</svg>
